<mxfile host="app.diagrams.net" agent="Mozilla/5.0 (Windows NT 10.0; Win64; x64) AppleWebKit/537.36 (KHTML, like Gecko) Chrome/141.0.0.0 Safari/537.36" version="28.2.7">
  <diagram name="Página-1" id="AfXVCvcCckMgPdGUNOZB">
    <mxGraphModel dx="1722" dy="919" grid="1" gridSize="10" guides="1" tooltips="1" connect="1" arrows="1" fold="1" page="1" pageScale="1" pageWidth="827" pageHeight="1169" math="0" shadow="0">
      <root>
        <mxCell id="0" />
        <mxCell id="1" parent="0" />
        <mxCell id="TIiHsKyqY6bqQjSK_qeh-1" value="" style="rounded=0;whiteSpace=wrap;html=1;" vertex="1" parent="1">
          <mxGeometry x="190" width="410" height="910" as="geometry" />
        </mxCell>
        <mxCell id="TIiHsKyqY6bqQjSK_qeh-2" value="&lt;font style=&quot;font-size: 16px;&quot;&gt;Compra de boletos Online CinePlus&lt;/font&gt;" style="text;html=1;whiteSpace=wrap;strokeColor=none;fillColor=none;align=center;verticalAlign=middle;rounded=0;" vertex="1" parent="1">
          <mxGeometry x="300" y="20" width="200" height="30" as="geometry" />
        </mxCell>
        <mxCell id="TIiHsKyqY6bqQjSK_qeh-4" value="Mostrar Cartelera" style="ellipse;whiteSpace=wrap;html=1;" vertex="1" parent="1">
          <mxGeometry x="220" y="110" width="120" height="60" as="geometry" />
        </mxCell>
        <mxCell id="TIiHsKyqY6bqQjSK_qeh-5" value="Seleccionar Película" style="ellipse;whiteSpace=wrap;html=1;" vertex="1" parent="1">
          <mxGeometry x="220" y="180" width="120" height="60" as="geometry" />
        </mxCell>
        <mxCell id="TIiHsKyqY6bqQjSK_qeh-6" value="Seleccionar Asientos" style="ellipse;whiteSpace=wrap;html=1;" vertex="1" parent="1">
          <mxGeometry x="220" y="320" width="120" height="60" as="geometry" />
        </mxCell>
        <mxCell id="TIiHsKyqY6bqQjSK_qeh-7" value="Pagar Boletos" style="ellipse;whiteSpace=wrap;html=1;" vertex="1" parent="1">
          <mxGeometry x="220" y="460" width="120" height="60" as="geometry" />
        </mxCell>
        <mxCell id="TIiHsKyqY6bqQjSK_qeh-10" value="Generar Comrpobante/Boleto" style="ellipse;whiteSpace=wrap;html=1;" vertex="1" parent="1">
          <mxGeometry x="440" y="110" width="120" height="60" as="geometry" />
        </mxCell>
        <mxCell id="TIiHsKyqY6bqQjSK_qeh-11" value="Actualizar Cartelera" style="ellipse;whiteSpace=wrap;html=1;" vertex="1" parent="1">
          <mxGeometry x="220" y="530" width="120" height="60" as="geometry" />
        </mxCell>
        <mxCell id="TIiHsKyqY6bqQjSK_qeh-12" value="Agregar Pelicula nueva" style="ellipse;whiteSpace=wrap;html=1;" vertex="1" parent="1">
          <mxGeometry x="220" y="600" width="120" height="60" as="geometry" />
        </mxCell>
        <mxCell id="TIiHsKyqY6bqQjSK_qeh-13" value="Cambiar Horario" style="ellipse;whiteSpace=wrap;html=1;" vertex="1" parent="1">
          <mxGeometry x="220" y="670" width="120" height="60" as="geometry" />
        </mxCell>
        <mxCell id="TIiHsKyqY6bqQjSK_qeh-14" value="Asignar Sala" style="ellipse;whiteSpace=wrap;html=1;" vertex="1" parent="1">
          <mxGeometry x="220" y="740" width="120" height="60" as="geometry" />
        </mxCell>
        <mxCell id="TIiHsKyqY6bqQjSK_qeh-15" value="Modificar precio" style="ellipse;whiteSpace=wrap;html=1;" vertex="1" parent="1">
          <mxGeometry x="220" y="810" width="120" height="60" as="geometry" />
        </mxCell>
        <mxCell id="TIiHsKyqY6bqQjSK_qeh-16" value="Consultar disponibilidad de asientos" style="ellipse;whiteSpace=wrap;html=1;" vertex="1" parent="1">
          <mxGeometry x="220" y="390" width="120" height="60" as="geometry" />
        </mxCell>
        <mxCell id="TIiHsKyqY6bqQjSK_qeh-17" value="Cliente" style="shape=umlActor;verticalLabelPosition=bottom;verticalAlign=top;html=1;outlineConnect=0;" vertex="1" parent="1">
          <mxGeometry x="30" y="150" width="30" height="60" as="geometry" />
        </mxCell>
        <mxCell id="TIiHsKyqY6bqQjSK_qeh-18" value="Sistema de pago&lt;br&gt;externo" style="shape=umlActor;verticalLabelPosition=bottom;verticalAlign=top;html=1;outlineConnect=0;" vertex="1" parent="1">
          <mxGeometry x="730" y="110" width="30" height="60" as="geometry" />
        </mxCell>
        <mxCell id="TIiHsKyqY6bqQjSK_qeh-19" value="Administrador" style="shape=umlActor;verticalLabelPosition=bottom;verticalAlign=top;html=1;outlineConnect=0;" vertex="1" parent="1">
          <mxGeometry x="30" y="630" width="30" height="60" as="geometry" />
        </mxCell>
        <mxCell id="TIiHsKyqY6bqQjSK_qeh-21" value="Consultar Horarios" style="ellipse;whiteSpace=wrap;html=1;" vertex="1" parent="1">
          <mxGeometry x="220" y="250" width="120" height="60" as="geometry" />
        </mxCell>
        <mxCell id="TIiHsKyqY6bqQjSK_qeh-24" value="" style="endArrow=classic;html=1;rounded=0;entryX=0;entryY=0.5;entryDx=0;entryDy=0;" edge="1" parent="1" source="TIiHsKyqY6bqQjSK_qeh-17" target="TIiHsKyqY6bqQjSK_qeh-4">
          <mxGeometry width="50" height="50" relative="1" as="geometry">
            <mxPoint x="90" y="110" as="sourcePoint" />
            <mxPoint x="120" y="300" as="targetPoint" />
          </mxGeometry>
        </mxCell>
        <mxCell id="TIiHsKyqY6bqQjSK_qeh-25" value="" style="endArrow=classic;html=1;rounded=0;entryX=0;entryY=0.5;entryDx=0;entryDy=0;" edge="1" parent="1" source="TIiHsKyqY6bqQjSK_qeh-17" target="TIiHsKyqY6bqQjSK_qeh-5">
          <mxGeometry width="50" height="50" relative="1" as="geometry">
            <mxPoint x="70" y="350" as="sourcePoint" />
            <mxPoint x="330" y="270" as="targetPoint" />
          </mxGeometry>
        </mxCell>
        <mxCell id="TIiHsKyqY6bqQjSK_qeh-26" value="" style="endArrow=classic;html=1;rounded=0;entryX=0;entryY=0.5;entryDx=0;entryDy=0;" edge="1" parent="1" source="TIiHsKyqY6bqQjSK_qeh-17" target="TIiHsKyqY6bqQjSK_qeh-21">
          <mxGeometry width="50" height="50" relative="1" as="geometry">
            <mxPoint x="70" y="350" as="sourcePoint" />
            <mxPoint x="350" y="370" as="targetPoint" />
          </mxGeometry>
        </mxCell>
        <mxCell id="TIiHsKyqY6bqQjSK_qeh-28" value="" style="endArrow=classic;html=1;rounded=0;entryX=0;entryY=0.5;entryDx=0;entryDy=0;" edge="1" parent="1" source="TIiHsKyqY6bqQjSK_qeh-17" target="TIiHsKyqY6bqQjSK_qeh-6">
          <mxGeometry width="50" height="50" relative="1" as="geometry">
            <mxPoint x="70" y="350" as="sourcePoint" />
            <mxPoint x="460" y="400" as="targetPoint" />
          </mxGeometry>
        </mxCell>
        <mxCell id="TIiHsKyqY6bqQjSK_qeh-29" value="" style="endArrow=classic;html=1;rounded=0;entryX=0;entryY=0.5;entryDx=0;entryDy=0;" edge="1" parent="1" source="TIiHsKyqY6bqQjSK_qeh-17" target="TIiHsKyqY6bqQjSK_qeh-16">
          <mxGeometry width="50" height="50" relative="1" as="geometry">
            <mxPoint x="70" y="350" as="sourcePoint" />
            <mxPoint x="360" y="480" as="targetPoint" />
          </mxGeometry>
        </mxCell>
        <mxCell id="TIiHsKyqY6bqQjSK_qeh-30" value="" style="endArrow=classic;html=1;rounded=0;entryX=0;entryY=0.5;entryDx=0;entryDy=0;" edge="1" parent="1" source="TIiHsKyqY6bqQjSK_qeh-17" target="TIiHsKyqY6bqQjSK_qeh-7">
          <mxGeometry width="50" height="50" relative="1" as="geometry">
            <mxPoint x="70" y="350" as="sourcePoint" />
            <mxPoint x="350" y="590" as="targetPoint" />
          </mxGeometry>
        </mxCell>
        <mxCell id="TIiHsKyqY6bqQjSK_qeh-31" value="" style="endArrow=classic;html=1;rounded=0;entryX=1;entryY=0.5;entryDx=0;entryDy=0;" edge="1" parent="1" target="TIiHsKyqY6bqQjSK_qeh-10">
          <mxGeometry width="50" height="50" relative="1" as="geometry">
            <mxPoint x="720" y="140" as="sourcePoint" />
            <mxPoint x="690" y="200" as="targetPoint" />
          </mxGeometry>
        </mxCell>
        <mxCell id="TIiHsKyqY6bqQjSK_qeh-32" value="" style="endArrow=classic;html=1;rounded=0;entryX=0;entryY=0.5;entryDx=0;entryDy=0;" edge="1" parent="1" source="TIiHsKyqY6bqQjSK_qeh-19" target="TIiHsKyqY6bqQjSK_qeh-11">
          <mxGeometry width="50" height="50" relative="1" as="geometry">
            <mxPoint x="720" y="410" as="sourcePoint" />
            <mxPoint x="700" y="310" as="targetPoint" />
          </mxGeometry>
        </mxCell>
        <mxCell id="TIiHsKyqY6bqQjSK_qeh-33" value="" style="endArrow=classic;html=1;rounded=0;entryX=0;entryY=0.5;entryDx=0;entryDy=0;" edge="1" parent="1" source="TIiHsKyqY6bqQjSK_qeh-19" target="TIiHsKyqY6bqQjSK_qeh-12">
          <mxGeometry width="50" height="50" relative="1" as="geometry">
            <mxPoint x="60" y="650" as="sourcePoint" />
            <mxPoint x="620" y="320" as="targetPoint" />
          </mxGeometry>
        </mxCell>
        <mxCell id="TIiHsKyqY6bqQjSK_qeh-34" value="" style="endArrow=classic;html=1;rounded=0;entryX=0;entryY=0.5;entryDx=0;entryDy=0;" edge="1" parent="1" source="TIiHsKyqY6bqQjSK_qeh-19" target="TIiHsKyqY6bqQjSK_qeh-13">
          <mxGeometry width="50" height="50" relative="1" as="geometry">
            <mxPoint x="720" y="410" as="sourcePoint" />
            <mxPoint x="640" y="370" as="targetPoint" />
          </mxGeometry>
        </mxCell>
        <mxCell id="TIiHsKyqY6bqQjSK_qeh-35" value="" style="endArrow=classic;html=1;rounded=0;entryX=0;entryY=0.5;entryDx=0;entryDy=0;" edge="1" parent="1" source="TIiHsKyqY6bqQjSK_qeh-19" target="TIiHsKyqY6bqQjSK_qeh-14">
          <mxGeometry width="50" height="50" relative="1" as="geometry">
            <mxPoint x="720" y="410" as="sourcePoint" />
            <mxPoint x="640" y="430" as="targetPoint" />
          </mxGeometry>
        </mxCell>
        <mxCell id="TIiHsKyqY6bqQjSK_qeh-36" value="" style="endArrow=classic;html=1;rounded=0;entryX=0;entryY=0.5;entryDx=0;entryDy=0;" edge="1" parent="1" source="TIiHsKyqY6bqQjSK_qeh-19" target="TIiHsKyqY6bqQjSK_qeh-15">
          <mxGeometry width="50" height="50" relative="1" as="geometry">
            <mxPoint x="720" y="410" as="sourcePoint" />
            <mxPoint x="730" y="540" as="targetPoint" />
          </mxGeometry>
        </mxCell>
        <mxCell id="TIiHsKyqY6bqQjSK_qeh-38" value="" style="endArrow=none;dashed=1;html=1;rounded=0;exitX=1;exitY=0.5;exitDx=0;exitDy=0;entryX=1;entryY=0.5;entryDx=0;entryDy=0;" edge="1" parent="1" source="TIiHsKyqY6bqQjSK_qeh-16" target="TIiHsKyqY6bqQjSK_qeh-6">
          <mxGeometry width="50" height="50" relative="1" as="geometry">
            <mxPoint x="390" y="420" as="sourcePoint" />
            <mxPoint x="440" y="370" as="targetPoint" />
            <Array as="points">
              <mxPoint x="370" y="390" />
            </Array>
          </mxGeometry>
        </mxCell>
        <mxCell id="TIiHsKyqY6bqQjSK_qeh-39" value="&amp;lt;include&amp;gt;" style="text;html=1;whiteSpace=wrap;strokeColor=none;fillColor=none;align=center;verticalAlign=middle;rounded=0;" vertex="1" parent="1">
          <mxGeometry x="310" y="370" width="60" height="30" as="geometry" />
        </mxCell>
        <mxCell id="TIiHsKyqY6bqQjSK_qeh-41" value="" style="endArrow=none;dashed=1;html=1;rounded=0;entryX=1;entryY=0.5;entryDx=0;entryDy=0;exitX=0.998;exitY=0.48;exitDx=0;exitDy=0;exitPerimeter=0;" edge="1" parent="1" source="TIiHsKyqY6bqQjSK_qeh-11" target="TIiHsKyqY6bqQjSK_qeh-4">
          <mxGeometry width="50" height="50" relative="1" as="geometry">
            <mxPoint x="340" y="640" as="sourcePoint" />
            <mxPoint x="460" y="140.0000000000001" as="targetPoint" />
            <Array as="points">
              <mxPoint x="400" y="400" />
            </Array>
          </mxGeometry>
        </mxCell>
        <mxCell id="TIiHsKyqY6bqQjSK_qeh-42" value="&amp;lt;include&amp;gt;" style="text;html=1;whiteSpace=wrap;strokeColor=none;fillColor=none;align=center;verticalAlign=middle;rounded=0;" vertex="1" parent="1">
          <mxGeometry x="400" y="380" width="60" height="30" as="geometry" />
        </mxCell>
        <mxCell id="TIiHsKyqY6bqQjSK_qeh-43" value="Cajero" style="shape=umlActor;verticalLabelPosition=bottom;verticalAlign=top;html=1;outlineConnect=0;" vertex="1" parent="1">
          <mxGeometry x="30" y="440" width="30" height="60" as="geometry" />
        </mxCell>
        <mxCell id="TIiHsKyqY6bqQjSK_qeh-44" value="" style="endArrow=classic;html=1;rounded=0;entryX=0;entryY=0.5;entryDx=0;entryDy=0;" edge="1" parent="1" source="TIiHsKyqY6bqQjSK_qeh-43" target="TIiHsKyqY6bqQjSK_qeh-4">
          <mxGeometry width="50" height="50" relative="1" as="geometry">
            <mxPoint x="51" y="468" as="sourcePoint" />
            <mxPoint x="221" y="440" as="targetPoint" />
          </mxGeometry>
        </mxCell>
        <mxCell id="TIiHsKyqY6bqQjSK_qeh-45" value="" style="endArrow=classic;html=1;rounded=0;entryX=0;entryY=0.5;entryDx=0;entryDy=0;" edge="1" parent="1" source="TIiHsKyqY6bqQjSK_qeh-43" target="TIiHsKyqY6bqQjSK_qeh-5">
          <mxGeometry width="50" height="50" relative="1" as="geometry">
            <mxPoint x="51" y="473" as="sourcePoint" />
            <mxPoint x="221" y="510" as="targetPoint" />
          </mxGeometry>
        </mxCell>
        <mxCell id="TIiHsKyqY6bqQjSK_qeh-46" value="" style="endArrow=classic;html=1;rounded=0;entryX=0;entryY=0.5;entryDx=0;entryDy=0;" edge="1" parent="1" source="TIiHsKyqY6bqQjSK_qeh-43" target="TIiHsKyqY6bqQjSK_qeh-21">
          <mxGeometry width="50" height="50" relative="1" as="geometry">
            <mxPoint x="51" y="479" as="sourcePoint" />
            <mxPoint x="221" y="580" as="targetPoint" />
          </mxGeometry>
        </mxCell>
        <mxCell id="TIiHsKyqY6bqQjSK_qeh-48" value="" style="endArrow=classic;html=1;rounded=0;entryX=0;entryY=0.5;entryDx=0;entryDy=0;" edge="1" parent="1" source="TIiHsKyqY6bqQjSK_qeh-43" target="TIiHsKyqY6bqQjSK_qeh-6">
          <mxGeometry width="50" height="50" relative="1" as="geometry">
            <mxPoint x="51" y="490" as="sourcePoint" />
            <mxPoint x="221" y="720" as="targetPoint" />
          </mxGeometry>
        </mxCell>
        <mxCell id="TIiHsKyqY6bqQjSK_qeh-49" value="" style="endArrow=classic;html=1;rounded=0;entryX=0;entryY=0.5;entryDx=0;entryDy=0;" edge="1" parent="1" source="TIiHsKyqY6bqQjSK_qeh-43" target="TIiHsKyqY6bqQjSK_qeh-16">
          <mxGeometry width="50" height="50" relative="1" as="geometry">
            <mxPoint x="51" y="496" as="sourcePoint" />
            <mxPoint x="221" y="790" as="targetPoint" />
          </mxGeometry>
        </mxCell>
        <mxCell id="TIiHsKyqY6bqQjSK_qeh-50" value="" style="endArrow=classic;html=1;rounded=0;entryX=0;entryY=0.5;entryDx=0;entryDy=0;" edge="1" parent="1" source="TIiHsKyqY6bqQjSK_qeh-43" target="TIiHsKyqY6bqQjSK_qeh-7">
          <mxGeometry width="50" height="50" relative="1" as="geometry">
            <mxPoint x="50" y="500" as="sourcePoint" />
            <mxPoint x="221" y="860" as="targetPoint" />
          </mxGeometry>
        </mxCell>
        <mxCell id="TIiHsKyqY6bqQjSK_qeh-53" value="" style="endArrow=none;dashed=1;html=1;rounded=0;exitX=1;exitY=0.5;exitDx=0;exitDy=0;entryX=0.5;entryY=1;entryDx=0;entryDy=0;" edge="1" parent="1" source="TIiHsKyqY6bqQjSK_qeh-7" target="TIiHsKyqY6bqQjSK_qeh-10">
          <mxGeometry width="50" height="50" relative="1" as="geometry">
            <mxPoint x="414" y="610" as="sourcePoint" />
            <mxPoint x="574" y="220" as="targetPoint" />
            <Array as="points">
              <mxPoint x="480" y="410" />
            </Array>
          </mxGeometry>
        </mxCell>
        <mxCell id="TIiHsKyqY6bqQjSK_qeh-54" value="&amp;lt;include&amp;gt;" style="text;html=1;whiteSpace=wrap;strokeColor=none;fillColor=none;align=center;verticalAlign=middle;rounded=0;" vertex="1" parent="1">
          <mxGeometry x="480" y="400" width="60" height="30" as="geometry" />
        </mxCell>
        <mxCell id="TIiHsKyqY6bqQjSK_qeh-55" style="edgeStyle=orthogonalEdgeStyle;rounded=0;orthogonalLoop=1;jettySize=auto;html=1;entryX=0.5;entryY=0;entryDx=0;entryDy=0;entryPerimeter=0;exitX=0;exitY=0.5;exitDx=0;exitDy=0;" edge="1" parent="1" source="TIiHsKyqY6bqQjSK_qeh-10" target="TIiHsKyqY6bqQjSK_qeh-17">
          <mxGeometry relative="1" as="geometry">
            <Array as="points">
              <mxPoint x="430" y="140" />
              <mxPoint x="430" y="100" />
              <mxPoint x="45" y="100" />
            </Array>
          </mxGeometry>
        </mxCell>
        <mxCell id="TIiHsKyqY6bqQjSK_qeh-56" style="edgeStyle=orthogonalEdgeStyle;rounded=0;orthogonalLoop=1;jettySize=auto;html=1;entryX=0;entryY=0.3333333333333333;entryDx=0;entryDy=0;entryPerimeter=0;exitX=0;exitY=0.5;exitDx=0;exitDy=0;" edge="1" parent="1" source="TIiHsKyqY6bqQjSK_qeh-10" target="TIiHsKyqY6bqQjSK_qeh-43">
          <mxGeometry relative="1" as="geometry">
            <Array as="points">
              <mxPoint x="430" y="140" />
              <mxPoint x="430" y="100" />
              <mxPoint x="10" y="100" />
              <mxPoint x="10" y="460" />
            </Array>
          </mxGeometry>
        </mxCell>
      </root>
    </mxGraphModel>
  </diagram>
</mxfile>
